OmeBhatkhandeHindi.ufo
<glyph name="hyphen" format="2">
  <advance width="1582"/>
  <unicode hex="002D"/>
  <unicode hex="00AD"/>
  <outline>
    <contour>
      <point x="499" y="440" type="line"/>
      <point x="489" y="451" type="line"/>
      <point x="544" y="588" type="line"/>
      <point x="1083" y="588" type="line"/>
      <point x="1093" y="578" type="line"/>
      <point x="1032" y="440" type="line"/>
    </contour>
  </outline>
</glyph>
<glyph name="zero" format="1">
  <advance width="1582"/>
  <unicode hex="0030"/>
  <outline>
    <contour>
      <point x="1074" y="455" type="qcurve" smooth="yes"/>
      <point x="1014" y="387"/>
      <point x="964" y="368" type="qcurve" smooth="yes"/>
      <point x="930" y="356"/>
      <point x="850" y="356" type="qcurve" smooth="yes"/>
      <point x="691" y="356"/>
      <point x="562" y="474" type="qcurve" smooth="yes"/>
      <point x="421" y="603"/>
      <point x="421" y="775" type="qcurve" smooth="yes"/>
      <point x="421" y="882"/>
      <point x="492" y="966" type="qcurve" smooth="yes"/>
      <point x="579" y="1068"/>
      <point x="719" y="1068" type="qcurve" smooth="yes"/>
      <point x="878" y="1068"/>
      <point x="1011" y="951" type="qcurve" smooth="yes"/>
      <point x="1117" y="858"/>
      <point x="1151" y="739" type="qcurve" smooth="yes"/>
      <point x="1161" y="704"/>
      <point x="1161" y="665" type="qcurve" smooth="yes"/>
      <point x="1161" y="554"/>
    </contour>
    <contour>
      <point x="938" y="891" type="qcurve"/>
      <point x="889" y="918" type="line" smooth="yes"/>
      <point x="864" y="928"/>
      <point x="841" y="928" type="qcurve" smooth="yes"/>
      <point x="795" y="928"/>
      <point x="716" y="879" type="qcurve" smooth="yes"/>
      <point x="599" y="807"/>
      <point x="599" y="649" type="qcurve" smooth="yes"/>
      <point x="599" y="557"/>
      <point x="663" y="510" type="qcurve" smooth="yes"/>
      <point x="690" y="490"/>
      <point x="727" y="490" type="qcurve" smooth="yes"/>
      <point x="868" y="490"/>
      <point x="959" y="662" type="qcurve" smooth="yes"/>
      <point x="993" y="727"/>
      <point x="993" y="784" type="qcurve" smooth="yes"/>
      <point x="993" y="854"/>
    </contour>
  </outline>
</glyph>
<glyph name="one" format="2">
  <advance width="1582"/>
  <unicode hex="0031"/>
  <outline>
    <contour>
      <point x="1022" y="42" type="qcurve" smooth="yes"/>
      <point x="1034" y="10"/>
      <point x="1037" y="-16" type="qcurve" smooth="yes"/>
      <point x="1037" y="-73"/>
      <point x="966" y="-73" type="qcurve" smooth="yes"/>
      <point x="885" y="-73"/>
      <point x="831" y="-26" type="qcurve"/>
      <point x="772" y="14" type="line" smooth="yes"/>
      <point x="735" y="39"/>
      <point x="735" y="75" type="qcurve" smooth="yes"/>
      <point x="735" y="110"/>
      <point x="778" y="123" type="qcurve" smooth="yes"/>
      <point x="822" y="136" type="line"/>
      <point x="819" y="141" type="line"/>
      <point x="819" y="181"/>
      <point x="556" y="500"/>
      <point x="556" y="535" type="qcurve"/>
      <point x="560" y="552"/>
      <point x="647" y="623" type="qcurve" smooth="yes"/>
      <point x="739" y="699"/>
      <point x="759" y="739" type="qcurve"/>
      <point x="607" y="853" type="line"/>
      <point x="538" y="922"/>
      <point x="538" y="1012" type="qcurve" smooth="yes"/>
      <point x="538" y="1117"/>
      <point x="595" y="1187" type="qcurve" smooth="yes"/>
      <point x="656" y="1263"/>
      <point x="759" y="1263" type="qcurve" smooth="yes"/>
      <point x="861" y="1263"/>
      <point x="949" y="1168" type="qcurve" smooth="yes"/>
      <point x="1045" y="1065"/>
      <point x="1045" y="927" type="qcurve" smooth="yes"/>
      <point x="1045" y="862"/>
      <point x="1022" y="798" type="qcurve" smooth="yes"/>
      <point x="1007" y="756"/>
      <point x="913" y="659" type="qcurve"/>
      <point x="856" y="608"/>
      <point x="799" y="557" type="qcurve" smooth="yes"/>
      <point x="724" y="485"/>
      <point x="724" y="439" type="qcurve" smooth="yes"/>
      <point x="724" y="397"/>
      <point x="759" y="360" type="qcurve" smooth="yes"/>
      <point x="908" y="202" type="line" smooth="yes"/>
      <point x="979" y="126"/>
    </contour>
    <contour>
      <point x="912" y="1083" type="qcurve" smooth="yes"/>
      <point x="884" y="1133"/>
      <point x="837" y="1133" type="qcurve" smooth="yes"/>
      <point x="804" y="1133"/>
      <point x="759" y="1098" type="qcurve" smooth="yes"/>
      <point x="689" y="1044"/>
      <point x="689" y="965" type="qcurve" smooth="yes"/>
      <point x="689" y="940"/>
      <point x="692" y="931" type="qcurve" smooth="yes"/>
      <point x="701" y="887"/>
      <point x="733" y="841" type="qcurve" smooth="yes"/>
      <point x="770" y="788"/>
      <point x="810" y="788" type="qcurve" smooth="yes"/>
      <point x="819" y="788"/>
      <point x="831" y="798" type="qcurve" smooth="yes"/>
      <point x="929" y="921"/>
      <point x="929" y="1015" type="qcurve" smooth="yes"/>
      <point x="929" y="1052"/>
    </contour>
  </outline>
</glyph>
<glyph name="three" format="1">
  <advance width="1582"/>
  <unicode hex="0033"/>
  <outline>
    <contour>
      <point x="1221" y="16" type="qcurve"/>
      <point x="1228" y="-15" type="line"/>
      <point x="1228" y="-73"/>
      <point x="1166" y="-73" type="qcurve" smooth="yes"/>
      <point x="1113" y="-73"/>
      <point x="1042" y="12" type="qcurve" smooth="yes"/>
      <point x="1032" y="24"/>
      <point x="951" y="138" type="qcurve" smooth="yes"/>
      <point x="843" y="290"/>
      <point x="812" y="318" type="qcurve"/>
      <point x="769" y="315" type="line" smooth="yes"/>
      <point x="666" y="308"/>
      <point x="586" y="372" type="qcurve" smooth="yes"/>
      <point x="503" y="439"/>
      <point x="503" y="541" type="qcurve"/>
      <point x="507" y="579" type="line" smooth="yes"/>
      <point x="511" y="618"/>
      <point x="561" y="640" type="qcurve" smooth="yes"/>
      <point x="586" y="651"/>
      <point x="608" y="651" type="qcurve" smooth="yes"/>
      <point x="637" y="651"/>
      <point x="661" y="637" type="qcurve"/>
      <point x="688" y="627"/>
      <point x="707" y="597" type="qcurve"/>
      <point x="754" y="541"/>
      <point x="800" y="541" type="qcurve" smooth="yes"/>
      <point x="860" y="541"/>
      <point x="899" y="640" type="qcurve"/>
      <point x="906" y="683" type="line"/>
      <point x="906" y="717"/>
      <point x="892" y="745" type="qcurve"/>
      <point x="883" y="772"/>
      <point x="860" y="800" type="qcurve" smooth="yes"/>
      <point x="850" y="812"/>
      <point x="830" y="813" type="qcurve"/>
      <point x="803" y="808" type="line"/>
      <point x="762" y="798" type="line"/>
      <point x="666" y="781" type="line"/>
      <point x="628" y="781"/>
      <point x="602" y="813" type="qcurve" smooth="yes"/>
      <point x="548" y="879" type="line" smooth="yes"/>
      <point x="527" y="905"/>
      <point x="527" y="923" type="qcurve" smooth="yes"/>
      <point x="527" y="943"/>
      <point x="567" y="949" type="qcurve" smooth="yes"/>
      <point x="590" y="952"/>
      <point x="613" y="951" type="qcurve" smooth="yes"/>
      <point x="647" y="949" type="line" smooth="yes"/>
      <point x="804" y="940"/>
      <point x="861" y="1075" type="qcurve" smooth="yes"/>
      <point x="870" y="1096"/>
      <point x="870" y="1120" type="qcurve" smooth="yes"/>
      <point x="870" y="1210"/>
      <point x="748" y="1210" type="qcurve" smooth="yes"/>
      <point x="687" y="1210"/>
      <point x="632" y="1186" type="qcurve" smooth="yes"/>
      <point x="556" y="1153" type="line" smooth="yes"/>
      <point x="529" y="1141"/>
      <point x="472" y="1129" type="qcurve"/>
      <point x="442" y="1144"/>
      <point x="393" y="1211" type="qcurve" smooth="yes"/>
      <point x="354" y="1264" type="line"/>
      <point x="369" y="1287" type="line"/>
      <point x="383" y="1300"/>
      <point x="419" y="1316" type="qcurve"/>
      <point x="548" y="1357"/>
      <point x="637" y="1357" type="qcurve" smooth="yes"/>
      <point x="741" y="1357"/>
      <point x="830" y="1297" type="qcurve" smooth="yes"/>
      <point x="1014" y="1173"/>
      <point x="1014" y="1023" type="qcurve" smooth="yes"/>
      <point x="1014" y="937"/>
      <point x="947" y="880" type="qcurve"/>
      <point x="920" y="863" type="line"/>
      <point x="914" y="853" type="line"/>
      <point x="914" y="843"/>
      <point x="930" y="827" type="qcurve" smooth="yes"/>
      <point x="1048" y="709"/>
      <point x="1048" y="580" type="qcurve" smooth="yes"/>
      <point x="1048" y="482"/>
      <point x="961" y="402" type="qcurve"/>
      <point x="926" y="376" type="line" smooth="yes"/>
      <point x="911" y="365"/>
      <point x="911" y="354" type="qcurve" smooth="yes"/>
      <point x="911" y="344"/>
      <point x="918" y="332" type="qcurve" smooth="yes"/>
      <point x="947" y="297" type="line"/>
      <point x="1113" y="136" type="line" smooth="yes"/>
      <point x="1209" y="43"/>
    </contour>
  </outline>
</glyph>
<glyph name="four" format="1">
  <advance width="1582"/>
  <unicode hex="0034"/>
  <outline>
    <contour>
      <point x="1140" y="718" type="qcurve"/>
      <point x="948" y="565" type="line"/>
      <point x="937" y="549" type="line" smooth="yes"/>
      <point x="932" y="545"/>
      <point x="928" y="537" type="qcurve"/>
      <point x="928" y="525"/>
      <point x="962" y="505" type="qcurve" smooth="yes"/>
      <point x="1034" y="463"/>
      <point x="1126" y="306"/>
      <point x="1126" y="224" type="qcurve" smooth="yes"/>
      <point x="1126" y="128"/>
      <point x="976" y="-16"/>
      <point x="879" y="-16" type="qcurve" smooth="yes"/>
      <point x="807" y="-16"/>
      <point x="702" y="48" type="qcurve" smooth="yes"/>
      <point x="628" y="93"/>
      <point x="531" y="255"/>
      <point x="531" y="339" type="qcurve" smooth="yes"/>
      <point x="531" y="492"/>
      <point x="685" y="588" type="qcurve"/>
      <point x="655" y="620"/>
      <point x="591" y="668" type="qcurve" smooth="yes"/>
      <point x="523" y="720"/>
      <point x="496" y="747" type="qcurve" smooth="yes"/>
      <point x="335" y="908"/>
      <point x="335" y="1056" type="qcurve" smooth="yes"/>
      <point x="335" y="1176"/>
      <point x="436" y="1267" type="qcurve" smooth="yes"/>
      <point x="450" y="1279"/>
      <point x="478" y="1292" type="qcurve"/>
      <point x="545" y="1299" type="line"/>
      <point x="576" y="1295"/>
      <point x="643" y="1234"/>
      <point x="646" y="1204" type="qcurve" smooth="yes"/>
      <point x="649" y="1174" type="line" smooth="yes"/>
      <point x="649" y="1154"/>
      <point x="644" y="1146" type="qcurve" smooth="yes"/>
      <point x="586" y="1103" type="line" smooth="yes"/>
      <point x="503" y="1041"/>
      <point x="503" y="955" type="qcurve" smooth="yes"/>
      <point x="503" y="789"/>
      <point x="761" y="639" type="qcurve"/>
      <point x="1114" y="867"/>
      <point x="1114" y="1040" type="qcurve" smooth="yes"/>
      <point x="1114" y="1093"/>
      <point x="1077" y="1154" type="qcurve"/>
      <point x="1066" y="1169" type="line" smooth="yes"/>
      <point x="1056" y="1183"/>
      <point x="1041" y="1188" type="qcurve" smooth="yes"/>
      <point x="999" y="1203"/>
      <point x="999" y="1257" type="qcurve"/>
      <point x="1003" y="1278" type="line" smooth="yes"/>
      <point x="1007" y="1299"/>
      <point x="1031" y="1301" type="qcurve"/>
      <point x="1052" y="1296" type="line" smooth="yes"/>
      <point x="1066" y="1291"/>
      <point x="1080" y="1278" type="qcurve" smooth="yes"/>
      <point x="1248" y="1128"/>
      <point x="1248" y="971" type="qcurve" smooth="yes"/>
      <point x="1248" y="832"/>
    </contour>
    <contour>
      <point x="962" y="325" type="qcurve" smooth="yes"/>
      <point x="962" y="426"/>
      <point x="851" y="480" type="qcurve"/>
      <point x="804" y="458"/>
      <point x="748" y="401" type="qcurve" smooth="yes"/>
      <point x="704" y="356"/>
      <point x="688" y="300" type="qcurve"/>
      <point x="683" y="247" type="line"/>
      <point x="683" y="132"/>
      <point x="780" y="132" type="qcurve"/>
      <point x="799" y="129" type="line"/>
      <point x="861" y="129"/>
      <point x="913" y="197" type="qcurve" smooth="yes"/>
      <point x="962" y="261"/>
    </contour>
  </outline>
</glyph>
<glyph name="five" format="2">
  <advance width="1582"/>
  <unicode hex="0035"/>
  <outline>
    <contour>
      <point x="1192" y="-42" type="qcurve" smooth="yes"/>
      <point x="1171" y="-42"/>
      <point x="1163" y="-33" type="qcurve" smooth="yes"/>
      <point x="1138" y="-14"/>
      <point x="1119" y="63" type="qcurve" smooth="yes"/>
      <point x="1093" y="167" type="line"/>
      <point x="1073" y="219"/>
      <point x="1017" y="354" type="qcurve" smooth="yes"/>
      <point x="922" y="570" type="line"/>
      <point x="906" y="577" type="line"/>
      <point x="868" y="565" type="line" smooth="yes"/>
      <point x="836" y="555"/>
      <point x="795" y="555" type="qcurve" smooth="yes"/>
      <point x="662" y="555"/>
      <point x="540" y="628" type="qcurve" smooth="yes"/>
      <point x="341" y="747"/>
      <point x="341" y="934" type="qcurve" smooth="yes"/>
      <point x="341" y="974" type="line" smooth="yes"/>
      <point x="344" y="983"/>
      <point x="348" y="1004" type="qcurve" smooth="yes"/>
      <point x="356" y="1059" type="line"/>
      <point x="360" y="1096" type="line"/>
      <point x="360" y="1143"/>
      <point x="335" y="1210" type="qcurve" smooth="yes"/>
      <point x="332" y="1218"/>
      <point x="313" y="1255" type="qcurve"/>
      <point x="313" y="1299"/>
      <point x="336" y="1300" type="qcurve" smooth="yes"/>
      <point x="368" y="1301"/>
      <point x="408" y="1279" type="qcurve" smooth="yes"/>
      <point x="481" y="1239" type="line"/>
      <point x="589" y="1193"/>
      <point x="589" y="1127" type="qcurve" smooth="yes"/>
      <point x="589" y="1104"/>
      <point x="582" y="1083" type="qcurve" smooth="yes"/>
      <point x="561" y="1021" type="line" smooth="yes"/>
      <point x="554" y="999"/>
      <point x="523" y="889"/>
      <point x="523" y="836" type="qcurve" smooth="yes"/>
      <point x="523" y="691"/>
      <point x="681" y="697" type="qcurve" smooth="yes"/>
      <point x="830" y="702"/>
      <point x="830" y="823" type="qcurve" smooth="yes"/>
      <point x="830" y="855"/>
      <point x="826" y="867" type="qcurve"/>
      <point x="826" y="1009"/>
      <point x="965" y="1026" type="qcurve"/>
      <point x="1034" y="1006"/>
      <point x="1124" y="890"/>
      <point x="1124" y="818" type="qcurve" smooth="yes"/>
      <point x="1124" y="722"/>
      <point x="1041" y="648" type="qcurve"/>
      <point x="1022" y="638" type="line" smooth="yes"/>
      <point x="1010" y="633"/>
      <point x="1008" y="624" type="qcurve" smooth="yes"/>
      <point x="1008" y="619"/>
      <point x="1090" y="465" type="qcurve" smooth="yes"/>
      <point x="1150" y="352" type="line"/>
      <point x="1237" y="213" type="line"/>
      <point x="1270" y="139"/>
      <point x="1270" y="77" type="qcurve" smooth="yes"/>
      <point x="1270" y="46"/>
      <point x="1249" y="-35"/>
    </contour>
  </outline>
</glyph>
<glyph name="six" format="1">
  <advance width="1582"/>
  <unicode hex="0036"/>
  <outline>
    <contour>
      <point x="1138" y="-1" type="line" smooth="yes"/>
      <point x="1148" y="-18"/>
      <point x="1148" y="-35" type="qcurve" smooth="yes"/>
      <point x="1148" y="-88"/>
      <point x="1083" y="-95" type="qcurve"/>
      <point x="1040" y="-95"/>
      <point x="1005" y="-50" type="qcurve" smooth="yes"/>
      <point x="981" y="-19"/>
      <point x="946" y="77" type="qcurve" smooth="yes"/>
      <point x="865" y="304"/>
      <point x="837" y="344" type="qcurve"/>
      <point x="735" y="344"/>
      <point x="685" y="368" type="qcurve" smooth="yes"/>
      <point x="616" y="401"/>
      <point x="522" y="513" type="qcurve" smooth="yes"/>
      <point x="450" y="599"/>
      <point x="450" y="684" type="qcurve" smooth="yes"/>
      <point x="450" y="791"/>
      <point x="558" y="888" type="qcurve"/>
      <point x="497" y="957"/>
      <point x="471" y="1001" type="qcurve" smooth="yes"/>
      <point x="435" y="1060"/>
      <point x="435" y="1114" type="qcurve" smooth="yes"/>
      <point x="435" y="1161"/>
      <point x="464" y="1204" type="qcurve" smooth="yes"/>
      <point x="548" y="1327"/>
      <point x="733" y="1319" type="qcurve" smooth="yes"/>
      <point x="777" y="1317" type="line" smooth="yes"/>
      <point x="888" y="1312"/>
      <point x="922" y="1292" type="qcurve" smooth="yes"/>
      <point x="944" y="1279"/>
      <point x="962" y="1233" type="qcurve" smooth="yes"/>
      <point x="980" y="1186" type="line"/>
      <point x="992" y="1143" type="line"/>
      <point x="992" y="1117"/>
      <point x="968" y="1105" type="qcurve"/>
      <point x="952" y="1108"/>
      <point x="883" y="1133" type="qcurve" smooth="yes"/>
      <point x="801" y="1162"/>
      <point x="755" y="1162" type="qcurve" smooth="yes"/>
      <point x="715" y="1162"/>
      <point x="686" y="1148" type="qcurve" smooth="yes"/>
      <point x="582" y="1112"/>
      <point x="582" y="1011" type="qcurve" smooth="yes"/>
      <point x="582" y="959"/>
      <point x="621" y="922" type="qcurve"/>
      <point x="649" y="933"/>
      <point x="721" y="951" type="qcurve"/>
      <point x="821" y="958" type="line" smooth="yes"/>
      <point x="868" y="961"/>
      <point x="885" y="919" type="qcurve"/>
      <point x="910" y="876" type="line" smooth="yes"/>
      <point x="926" y="854"/>
      <point x="929" y="833" type="qcurve"/>
      <point x="924" y="813" type="line"/>
      <point x="914" y="793"/>
      <point x="881" y="795" type="qcurve" smooth="yes"/>
      <point x="815" y="799" type="line" smooth="yes"/>
      <point x="728" y="804"/>
      <point x="657" y="748" type="qcurve" smooth="yes"/>
      <point x="584" y="689"/>
      <point x="584" y="602" type="qcurve" smooth="yes"/>
      <point x="584" y="569"/>
      <point x="597" y="537" type="qcurve" smooth="yes"/>
      <point x="606" y="515"/>
      <point x="644" y="500" type="qcurve" smooth="yes"/>
      <point x="676" y="487"/>
      <point x="705" y="487" type="qcurve" smooth="yes"/>
      <point x="751" y="487"/>
      <point x="787" y="513" type="qcurve"/>
      <point x="796" y="530" type="line"/>
      <point x="797" y="575" type="line"/>
      <point x="807" y="655"/>
      <point x="924" y="655" type="qcurve" smooth="yes"/>
      <point x="976" y="655"/>
      <point x="1017" y="600" type="qcurve" smooth="yes"/>
      <point x="1056" y="549"/>
      <point x="1056" y="496" type="qcurve" smooth="yes"/>
      <point x="1056" y="433"/>
      <point x="989" y="392" type="qcurve" smooth="yes"/>
      <point x="955" y="371" type="line" smooth="yes"/>
      <point x="939" y="361"/>
      <point x="939" y="344" type="qcurve"/>
      <point x="950" y="311" type="line"/>
    </contour>
  </outline>
</glyph>
<glyph name="seven" format="1">
  <advance width="1582"/>
  <unicode hex="0037"/>
  <outline>
    <contour>
      <point x="1245" y="808" type="qcurve" smooth="yes"/>
      <point x="1251" y="738" type="line"/>
      <point x="1253" y="701" type="line" smooth="yes"/>
      <point x="1262" y="530"/>
      <point x="1166" y="402" type="qcurve" smooth="yes"/>
      <point x="1063" y="264"/>
      <point x="896" y="264" type="qcurve" smooth="yes"/>
      <point x="581" y="264"/>
      <point x="415" y="711" type="qcurve" smooth="yes"/>
      <point x="361" y="857"/>
      <point x="328" y="1047" type="qcurve"/>
      <point x="328" y="1118"/>
      <point x="365" y="1122" type="qcurve" smooth="yes"/>
      <point x="389" y="1122"/>
      <point x="423" y="1072"/>
      <point x="423" y="1047" type="qcurve" smooth="yes"/>
      <point x="423" y="984"/>
      <point x="458" y="865" type="qcurve" smooth="yes"/>
      <point x="563" y="508"/>
      <point x="779" y="453" type="qcurve"/>
      <point x="844" y="444" type="line"/>
      <point x="930" y="444"/>
      <point x="1000" y="493" type="qcurve" smooth="yes"/>
      <point x="1075" y="545"/>
      <point x="1091" y="626" type="qcurve" smooth="yes"/>
      <point x="1091" y="646"/>
      <point x="1058" y="645" type="qcurve" smooth="yes"/>
      <point x="1014" y="643" type="line" smooth="yes"/>
      <point x="913" y="638"/>
      <point x="799" y="706" type="qcurve" smooth="yes"/>
      <point x="670" y="782"/>
      <point x="670" y="893" type="qcurve" smooth="yes"/>
      <point x="670" y="1110"/>
      <point x="912" y="1110" type="qcurve" smooth="yes"/>
      <point x="1014" y="1110"/>
      <point x="1129" y="1013" type="qcurve" smooth="yes"/>
      <point x="1235" y="923"/>
    </contour>
    <contour>
      <point x="1104" y="710" type="qcurve"/>
      <point x="1116" y="805" type="line"/>
      <point x="1116" y="837"/>
      <point x="1104" y="872" type="qcurve"/>
      <point x="1081" y="998"/>
      <point x="983" y="998" type="qcurve"/>
      <point x="944" y="993" type="line" smooth="yes"/>
      <point x="920" y="990"/>
      <point x="896" y="960" type="qcurve" smooth="yes"/>
      <point x="875" y="934"/>
      <point x="869" y="907" type="qcurve"/>
      <point x="869" y="710"/>
    </contour>
  </outline>
</glyph>
<glyph name="eight" format="1">
  <advance width="1582"/>
  <unicode hex="0038"/>
  <outline>
    <contour>
      <point x="1219" y="1086" type="qcurve" smooth="yes"/>
      <point x="1109" y="988"/>
      <point x="924" y="837" type="qcurve" smooth="yes"/>
      <point x="667" y="628" type="line" smooth="yes"/>
      <point x="552" y="534"/>
      <point x="552" y="434" type="qcurve" smooth="yes"/>
      <point x="552" y="318"/>
      <point x="719" y="267" type="qcurve"/>
      <point x="829" y="283"/>
      <point x="864" y="308" type="qcurve" smooth="yes"/>
      <point x="886" y="324"/>
      <point x="962" y="427" type="qcurve" smooth="yes"/>
      <point x="994" y="471"/>
      <point x="1066" y="471" type="qcurve"/>
      <point x="1096" y="467" type="line"/>
      <point x="1133" y="457"/>
      <point x="1199" y="423" type="qcurve"/>
      <point x="1232" y="397"/>
      <point x="1232" y="365" type="qcurve" smooth="yes"/>
      <point x="1232" y="316"/>
      <point x="1158" y="248" type="qcurve" smooth="yes"/>
      <point x="1037" y="137"/>
      <point x="855" y="137" type="qcurve" smooth="yes"/>
      <point x="797" y="137"/>
      <point x="732" y="153" type="qcurve" smooth="yes"/>
      <point x="682" y="165"/>
      <point x="621" y="196" type="qcurve" smooth="yes"/>
      <point x="379" y="318"/>
      <point x="349" y="515" type="qcurve" smooth="yes"/>
      <point x="341" y="567" type="line"/>
      <point x="341" y="599"/>
      <point x="386" y="644" type="qcurve" smooth="yes"/>
      <point x="390" y="648"/>
      <point x="433" y="683" type="qcurve" smooth="yes"/>
      <point x="694" y="896" type="line"/>
      <point x="1027" y="1180" type="line" smooth="yes"/>
      <point x="1052" y="1201"/>
      <point x="1087" y="1205" type="qcurve" smooth="yes"/>
      <point x="1119" y="1205"/>
      <point x="1158" y="1180" type="qcurve"/>
      <point x="1209" y="1155" type="line" smooth="yes"/>
      <point x="1240" y="1140"/>
      <point x="1242" y="1123" type="qcurve" smooth="yes"/>
      <point x="1242" y="1107"/>
    </contour>
  </outline>
</glyph>
<glyph name="D" format="1">
  <advance width="1582"/>
  <unicode hex="0044"/>
  <outline>
    <contour>
      <point x="1381" y="1169" type="line"/>
      <point x="1265" y="1169" type="line"/>
      <point x="1265" y="68" type="line" smooth="yes"/>
      <point x="1265" y="-3"/>
      <point x="1252" y="-3" type="qcurve" smooth="yes"/>
      <point x="1238" y="-3"/>
      <point x="1152" y="79" type="qcurve" smooth="yes"/>
      <point x="1094" y="134"/>
      <point x="1081" y="169" type="qcurve"/>
      <point x="1072" y="206"/>
      <point x="1072" y="358" type="qcurve"/>
      <point x="965" y="304" type="line" smooth="yes"/>
      <point x="884" y="263"/>
      <point x="795" y="263" type="qcurve" smooth="yes"/>
      <point x="696" y="263"/>
      <point x="632" y="293" type="qcurve" smooth="yes"/>
      <point x="575" y="319"/>
      <point x="499" y="394" type="qcurve" smooth="yes"/>
      <point x="383" y="507"/>
      <point x="383" y="639" type="qcurve" smooth="yes"/>
      <point x="383" y="696"/>
      <point x="414" y="731" type="qcurve" smooth="yes"/>
      <point x="476" y="801" type="line"/>
      <point x="460" y="829"/>
      <point x="422" y="858" type="qcurve"/>
      <point x="376" y="885" type="line" smooth="yes"/>
      <point x="354" y="898"/>
      <point x="345" y="906" type="qcurve" smooth="yes"/>
      <point x="310" y="929"/>
      <point x="292" y="981" type="qcurve"/>
      <point x="280" y="1046"/>
      <point x="280" y="1101" type="qcurve" smooth="yes"/>
      <point x="280" y="1123" type="line" smooth="yes"/>
      <point x="280" y="1169"/>
      <point x="201" y="1169" type="qcurve"/>
      <point x="201" y="1325" type="line"/>
      <point x="433" y="1325" type="line"/>
      <point x="528" y="1169" type="line"/>
      <point x="483" y="1169" type="line"/>
      <point x="454" y="1078" type="line" smooth="yes"/>
      <point x="445" y="1049"/>
      <point x="445" y="1007" type="qcurve" smooth="yes"/>
      <point x="445" y="911"/>
      <point x="538" y="838" type="qcurve"/>
      <point x="624" y="871"/>
      <point x="690" y="871" type="qcurve" smooth="yes"/>
      <point x="758" y="871"/>
      <point x="808" y="811" type="qcurve" smooth="yes"/>
      <point x="837" y="776" type="line" smooth="yes"/>
      <point x="858" y="751"/>
      <point x="858" y="737" type="qcurve" smooth="yes"/>
      <point x="858" y="711"/>
      <point x="792" y="711" type="qcurve" smooth="yes"/>
      <point x="686" y="711"/>
      <point x="616" y="669" type="qcurve" smooth="yes"/>
      <point x="532" y="618"/>
      <point x="532" y="519" type="qcurve" smooth="yes"/>
      <point x="532" y="400"/>
      <point x="658" y="406" type="qcurve" smooth="yes"/>
      <point x="701" y="408" type="line" smooth="yes"/>
      <point x="818" y="413"/>
      <point x="940" y="486" type="qcurve" smooth="yes"/>
      <point x="1045" y="549"/>
      <point x="1092" y="622" type="qcurve"/>
      <point x="1092" y="1169" type="line"/>
      <point x="744" y="1169" type="line"/>
      <point x="642" y="1325" type="line"/>
      <point x="1381" y="1325" type="line"/>
    </contour>
    <contour>
      <point x="1224" y="-400" type="line"/>
      <point x="264" y="-400" type="line"/>
      <point x="264" y="-312" type="line"/>
      <point x="1224" y="-312" type="line"/>
    </contour>
  </outline>
</glyph>
<glyph name="E" format="2">
  <advance width="0"/>
  <unicode hex="0045"/>
  <outline>
    <contour>
      <point x="1303" y="3639" type="line"/>
      <point x="1303" y="2498" type="line"/>
      <point x="1138" y="2498" type="line"/>
      <point x="1138" y="3309" type="line"/>
      <point x="1" y="3309" type="line"/>
      <point x="1" y="3640" type="line"/>
      <point x="1229" y="3640" type="line"/>
      <point x="1229" y="3639" type="line"/>
    </contour>
  </outline>
</glyph>
<glyph name="G" format="2">
  <advance width="1582"/>
  <unicode hex="0047"/>
  <outline>
    <contour>
      <point x="1397" y="1169" type="line"/>
      <point x="1291" y="1169" type="line"/>
      <point x="1291" y="59" type="line" smooth="yes"/>
      <point x="1291" y="-1"/>
      <point x="1262" y="-2" type="qcurve" smooth="yes"/>
      <point x="1235" y="0"/>
      <point x="1115" y="155" type="qcurve"/>
      <point x="1096" y="193"/>
      <point x="1096" y="247" type="qcurve" smooth="yes"/>
      <point x="1096" y="1169" type="line"/>
      <point x="625" y="1169" type="line"/>
      <point x="686" y="891" type="line" smooth="yes"/>
      <point x="715" y="760"/>
      <point x="715" y="660" type="qcurve" smooth="yes"/>
      <point x="715" y="525"/>
      <point x="650" y="445" type="qcurve" smooth="yes"/>
      <point x="604" y="389"/>
      <point x="533" y="389" type="qcurve"/>
      <point x="432" y="400"/>
      <point x="340" y="528" type="qcurve" smooth="yes"/>
      <point x="257" y="643"/>
      <point x="246" y="750" type="qcurve"/>
      <point x="246" y="830"/>
      <point x="300" y="830" type="qcurve" smooth="yes"/>
      <point x="336" y="830"/>
      <point x="385" y="797" type="qcurve" smooth="yes"/>
      <point x="419" y="774"/>
      <point x="442" y="774" type="qcurve" smooth="yes"/>
      <point x="518" y="773"/>
      <point x="518" y="979" type="qcurve" smooth="yes"/>
      <point x="518" y="1040"/>
      <point x="509" y="1097" type="qcurve" smooth="yes"/>
      <point x="498" y="1169" type="line"/>
      <point x="186" y="1169" type="line"/>
      <point x="186" y="1325" type="line"/>
      <point x="1397" y="1325" type="line"/>
    </contour>
    <contour>
      <point x="1209" y="-400" type="line"/>
      <point x="249" y="-400" type="line"/>
      <point x="249" y="-312" type="line"/>
      <point x="1209" y="-312" type="line"/>
    </contour>
  </outline>
</glyph>
<glyph name="M" format="2">
  <advance width="1582"/>
  <unicode hex="004D"/>
  <outline>
    <contour>
      <point x="1394" y="1169" type="line"/>
      <point x="1253" y="1169" type="line"/>
      <point x="1253" y="56" type="line"/>
      <point x="1257" y="-4"/>
      <point x="1230" y="0" type="qcurve"/>
      <point x="1205" y="-4"/>
      <point x="1070" y="140"/>
      <point x="1062" y="176" type="qcurve"/>
      <point x="1062" y="529" type="line"/>
      <point x="659" y="529" type="line"/>
      <point x="624" y="512"/>
      <point x="627" y="480" type="qcurve" smooth="yes"/>
      <point x="631" y="432" type="line"/>
      <point x="631" y="407" type="line" smooth="yes"/>
      <point x="631" y="390"/>
      <point x="627" y="372" type="qcurve"/>
      <point x="627" y="347"/>
      <point x="596" y="330" type="qcurve" smooth="yes"/>
      <point x="569" y="315"/>
      <point x="542" y="315" type="qcurve" smooth="yes"/>
      <point x="488" y="315"/>
      <point x="431" y="379" type="qcurve" smooth="yes"/>
      <point x="340" y="482" type="line"/>
      <point x="251" y="557"/>
      <point x="251" y="626" type="qcurve" smooth="yes"/>
      <point x="251" y="712"/>
      <point x="338" y="712" type="qcurve" smooth="yes"/>
      <point x="376" y="712" type="line"/>
      <point x="405" y="714" type="line"/>
      <point x="434" y="724" type="line"/>
      <point x="434" y="1169" type="line"/>
      <point x="189" y="1169" type="line"/>
      <point x="189" y="1325" type="line"/>
      <point x="1394" y="1325" type="line"/>
    </contour>
    <contour>
      <point x="1068" y="706" type="line"/>
      <point x="1068" y="1169" type="line"/>
      <point x="618" y="1169" type="line"/>
      <point x="618" y="706" type="line"/>
    </contour>
    <contour>
      <point x="887" y="1370" type="line"/>
      <point x="791" y="1370" type="line"/>
      <point x="791" y="2058" type="line"/>
      <point x="887" y="2058" type="line"/>
    </contour>
  </outline>
</glyph>
<glyph name="R" format="2">
  <advance width="1582"/>
  <unicode hex="0052"/>
  <outline>
    <contour>
      <point x="955" y="1489" type="line" smooth="yes"/>
      <point x="1002" y="1433"/>
      <point x="1002" y="1399" type="qcurve" smooth="yes"/>
      <point x="1002" y="1382"/>
      <point x="985" y="1379" type="qcurve" smooth="yes"/>
      <point x="952" y="1379"/>
      <point x="910" y="1433" type="qcurve" smooth="yes"/>
      <point x="769" y="1613" type="line" smooth="yes"/>
      <point x="739" y="1651"/>
      <point x="683" y="1684" type="qcurve" smooth="yes"/>
      <point x="652" y="1698"/>
      <point x="623" y="1698" type="qcurve"/>
      <point x="580" y="1692" type="line"/>
      <point x="536" y="1685" type="line"/>
      <point x="508" y="1680" type="line"/>
      <point x="479" y="1678" type="line" smooth="yes"/>
      <point x="432" y="1675"/>
      <point x="358" y="1777" type="qcurve" smooth="yes"/>
      <point x="324" y="1824" type="line" smooth="yes"/>
      <point x="297" y="1861"/>
      <point x="297" y="1877" type="qcurve" smooth="yes"/>
      <point x="296" y="1907"/>
      <point x="368" y="1907" type="qcurve" smooth="yes"/>
      <point x="606" y="1907"/>
      <point x="789" y="1688" type="qcurve" smooth="yes"/>
    </contour>
    <contour>
      <point x="1287" y="1169" type="line"/>
      <point x="1019" y="1169" type="line"/>
      <point x="1019" y="1139"/>
      <point x="1021" y="1108" type="qcurve" smooth="yes"/>
      <point x="1023" y="1086"/>
      <point x="1027" y="1028" type="qcurve" smooth="yes"/>
      <point x="1036" y="889" type="line" smooth="yes"/>
      <point x="1038" y="858"/>
      <point x="1038" y="839" type="qcurve" smooth="yes"/>
      <point x="1038" y="646"/>
      <point x="942" y="507" type="qcurve" smooth="yes"/>
      <point x="903" y="450"/>
      <point x="903" y="402" type="qcurve" smooth="yes"/>
      <point x="903" y="363"/>
      <point x="928" y="336" type="qcurve" smooth="yes"/>
      <point x="1003" y="253"/>
      <point x="1075" y="204" type="qcurve" smooth="yes"/>
      <point x="1234" y="95" type="line" smooth="yes"/>
      <point x="1287" y="59"/>
      <point x="1287" y="-1" type="qcurve" smooth="yes"/>
      <point x="1287" y="-50"/>
      <point x="1246" y="-50" type="qcurve" smooth="yes"/>
      <point x="1220" y="-50"/>
      <point x="1190" y="-25" type="qcurve" smooth="yes"/>
      <point x="1013" y="122" type="line"/>
      <point x="840" y="274" type="line" smooth="yes"/>
      <point x="769" y="336"/>
      <point x="678" y="448" type="qcurve" smooth="yes"/>
      <point x="667" y="461"/>
      <point x="632" y="510" type="qcurve" smooth="yes"/>
      <point x="595" y="556"/>
      <point x="533" y="656" type="qcurve" smooth="yes"/>
      <point x="525" y="673"/>
      <point x="520" y="689" type="qcurve" smooth="yes"/>
      <point x="511" y="747" type="line"/>
      <point x="511" y="859"/>
      <point x="597" y="859" type="qcurve" smooth="yes"/>
      <point x="625" y="859"/>
      <point x="739" y="808"/>
      <point x="768" y="808" type="qcurve" smooth="yes"/>
      <point x="792" y="808"/>
      <point x="807" y="816" type="qcurve"/>
      <point x="850" y="879"/>
      <point x="850" y="994" type="qcurve" smooth="yes"/>
      <point x="850" y="1061"/>
      <point x="840" y="1115" type="qcurve" smooth="yes"/>
      <point x="838" y="1144"/>
      <point x="830" y="1169" type="qcurve"/>
      <point x="452" y="1169" type="line"/>
      <point x="452" y="1325" type="line"/>
      <point x="1287" y="1325" type="line"/>
    </contour>
    <contour>
      <point x="1269" y="-400" type="line"/>
      <point x="456" y="-400" type="line"/>
      <point x="456" y="-312" type="line"/>
      <point x="1269" y="-312" type="line"/>
    </contour>
  </outline>
</glyph>
<glyph name="bracketleft" format="1">
  <advance width="1582"/>
  <unicode hex="005B"/>
  <outline>
    <contour>
      <point x="1038" y="1169" type="line"/>
      <point x="862" y="1169" type="line"/>
      <point x="849" y="1136"/>
      <point x="849" y="1109" type="qcurve" smooth="yes"/>
      <point x="849" y="1083"/>
      <point x="867" y="987" type="qcurve" smooth="yes"/>
      <point x="878" y="929"/>
      <point x="878" y="899" type="qcurve" smooth="yes"/>
      <point x="878" y="869" type="line"/>
      <point x="873" y="839"/>
      <point x="851" y="773" type="qcurve"/>
      <point x="833" y="766"/>
      <point x="796" y="767" type="qcurve" smooth="yes"/>
      <point x="635" y="771" type="line" smooth="yes"/>
      <point x="402" y="777"/>
      <point x="315" y="674" type="qcurve" smooth="yes"/>
      <point x="251" y="598"/>
      <point x="251" y="509" type="qcurve" smooth="yes"/>
      <point x="251" y="415"/>
      <point x="376" y="280"/>
      <point x="470" y="280" type="qcurve"/>
      <point x="521" y="285" type="line" smooth="yes"/>
      <point x="550" y="291"/>
      <point x="576" y="306" type="qcurve" smooth="yes"/>
      <point x="589" y="316"/>
      <point x="588" y="345" type="qcurve" smooth="yes"/>
      <point x="586" y="400" type="line" smooth="yes"/>
      <point x="582" y="521"/>
      <point x="725" y="544" type="qcurve"/>
      <point x="793" y="544"/>
      <point x="920" y="420"/>
      <point x="920" y="352" type="qcurve" smooth="yes"/>
      <point x="920" y="317"/>
      <point x="905" y="285" type="qcurve" smooth="yes"/>
      <point x="899" y="271"/>
      <point x="858" y="231" type="qcurve" smooth="yes"/>
      <point x="821" y="195"/>
      <point x="821" y="182" type="qcurve"/>
      <point x="835" y="151" type="line"/>
      <point x="862" y="111"/>
      <point x="940" y="16" type="qcurve" smooth="yes"/>
      <point x="1053" y="-122"/>
      <point x="1053" y="-189" type="qcurve" smooth="yes"/>
      <point x="1053" y="-227"/>
      <point x="1024" y="-264" type="qcurve" smooth="yes"/>
      <point x="1007" y="-280"/>
      <point x="982" y="-280" type="qcurve" smooth="yes"/>
      <point x="939" y="-280"/>
      <point x="872" y="-239" type="qcurve" smooth="yes"/>
      <point x="800" y="-195"/>
      <point x="800" y="-156" type="qcurve" smooth="yes"/>
      <point x="800" y="-126"/>
      <point x="857" y="-76"/>
      <point x="860" y="-60" type="qcurve" smooth="yes"/>
      <point x="860" y="-16"/>
      <point x="762" y="120" type="qcurve"/>
      <point x="744" y="139" type="line" smooth="yes"/>
      <point x="729" y="151"/>
      <point x="704" y="155" type="qcurve"/>
      <point x="679" y="151" type="line"/>
      <point x="619" y="146" type="line" smooth="yes"/>
      <point x="607" y="145"/>
      <point x="593" y="145" type="qcurve" smooth="yes"/>
      <point x="453" y="145"/>
      <point x="290" y="274" type="qcurve" smooth="yes"/>
      <point x="117" y="411"/>
      <point x="95" y="609" type="qcurve"/>
      <point x="95" y="763"/>
      <point x="203" y="844" type="qcurve" smooth="yes"/>
      <point x="300" y="918"/>
      <point x="459" y="916" type="qcurve" smooth="yes"/>
      <point x="562" y="915" type="line" smooth="yes"/>
      <point x="638" y="914"/>
      <point x="654" y="921" type="qcurve" smooth="yes"/>
      <point x="683" y="933"/>
      <point x="699" y="993" type="qcurve"/>
      <point x="699" y="1169" type="line"/>
      <point x="42" y="1169" type="line"/>
      <point x="42" y="1325" type="line"/>
      <point x="1038" y="1325" type="line"/>
    </contour>
    <contour>
      <point x="1540" y="1169" type="line"/>
      <point x="1384" y="1169" type="line"/>
      <point x="1383" y="44" type="line" smooth="yes"/>
      <point x="1383" y="1"/>
      <point x="1372" y="-3" type="qcurve"/>
      <point x="1357" y="-3"/>
      <point x="1283" y="66" type="qcurve" smooth="yes"/>
      <point x="1228" y="117" type="line" smooth="yes"/>
      <point x="1206" y="137"/>
      <point x="1202" y="170" type="qcurve"/>
      <point x="1202" y="1169" type="line"/>
      <point x="1042" y="1169" type="line"/>
      <point x="1042" y="1325" type="line"/>
      <point x="1540" y="1325" type="line"/>
    </contour>
  </outline>
</glyph>
<glyph name="backslash" format="1">
  <advance width="3164"/>
  <unicode hex="005C"/>
  <outline>
    <contour>
      <point x="2740" y="1170" type="line"/>
      <point x="2472" y="1170" type="line"/>
      <point x="2472" y="1140"/>
      <point x="2474" y="1109" type="qcurve" smooth="yes"/>
      <point x="2476" y="1087"/>
      <point x="2480" y="1029" type="qcurve" smooth="yes"/>
      <point x="2489" y="890" type="line" smooth="yes"/>
      <point x="2491" y="859"/>
      <point x="2491" y="840" type="qcurve" smooth="yes"/>
      <point x="2491" y="647"/>
      <point x="2395" y="508" type="qcurve" smooth="yes"/>
      <point x="2356" y="451"/>
      <point x="2356" y="403" type="qcurve" smooth="yes"/>
      <point x="2356" y="364"/>
      <point x="2381" y="337" type="qcurve" smooth="yes"/>
      <point x="2456" y="254"/>
      <point x="2528" y="205" type="qcurve" smooth="yes"/>
      <point x="2687" y="96" type="line" smooth="yes"/>
      <point x="2740" y="60"/>
      <point x="2740" y="0" type="qcurve" smooth="yes"/>
      <point x="2740" y="-49"/>
      <point x="2699" y="-49" type="qcurve" smooth="yes"/>
      <point x="2673" y="-49"/>
      <point x="2643" y="-24" type="qcurve" smooth="yes"/>
      <point x="2466" y="123" type="line"/>
      <point x="2293" y="275" type="line" smooth="yes"/>
      <point x="2222" y="337"/>
      <point x="2131" y="449" type="qcurve" smooth="yes"/>
      <point x="2120" y="462"/>
      <point x="2085" y="511" type="qcurve" smooth="yes"/>
      <point x="2048" y="557"/>
      <point x="1986" y="657" type="qcurve" smooth="yes"/>
      <point x="1978" y="674"/>
      <point x="1973" y="690" type="qcurve" smooth="yes"/>
      <point x="1964" y="748" type="line"/>
      <point x="1964" y="860"/>
      <point x="2050" y="860" type="qcurve" smooth="yes"/>
      <point x="2078" y="860"/>
      <point x="2192" y="809"/>
      <point x="2221" y="809" type="qcurve" smooth="yes"/>
      <point x="2245" y="809"/>
      <point x="2260" y="817" type="qcurve"/>
      <point x="2303" y="880"/>
      <point x="2303" y="995" type="qcurve" smooth="yes"/>
      <point x="2303" y="1062"/>
      <point x="2293" y="1116" type="qcurve" smooth="yes"/>
      <point x="2291" y="1145"/>
      <point x="2283" y="1170" type="qcurve"/>
      <point x="1905" y="1170" type="line"/>
      <point x="1905" y="1326" type="line"/>
      <point x="2740" y="1326" type="line"/>
    </contour>
    <contour>
      <point x="1896" y="1170" type="line"/>
      <point x="1720" y="1170" type="line"/>
      <point x="1707" y="1137"/>
      <point x="1707" y="1110" type="qcurve" smooth="yes"/>
      <point x="1707" y="1084"/>
      <point x="1725" y="988" type="qcurve" smooth="yes"/>
      <point x="1736" y="930"/>
      <point x="1736" y="900" type="qcurve" smooth="yes"/>
      <point x="1736" y="870" type="line"/>
      <point x="1731" y="840"/>
      <point x="1709" y="774" type="qcurve"/>
      <point x="1691" y="767"/>
      <point x="1654" y="768" type="qcurve" smooth="yes"/>
      <point x="1493" y="772" type="line" smooth="yes"/>
      <point x="1260" y="778"/>
      <point x="1173" y="675" type="qcurve" smooth="yes"/>
      <point x="1109" y="599"/>
      <point x="1109" y="510" type="qcurve" smooth="yes"/>
      <point x="1109" y="416"/>
      <point x="1234" y="281"/>
      <point x="1328" y="281" type="qcurve"/>
      <point x="1379" y="286" type="line" smooth="yes"/>
      <point x="1408" y="292"/>
      <point x="1434" y="307" type="qcurve" smooth="yes"/>
      <point x="1447" y="317"/>
      <point x="1446" y="346" type="qcurve" smooth="yes"/>
      <point x="1444" y="401" type="line" smooth="yes"/>
      <point x="1440" y="522"/>
      <point x="1583" y="545" type="qcurve"/>
      <point x="1651" y="545"/>
      <point x="1778" y="421"/>
      <point x="1778" y="353" type="qcurve" smooth="yes"/>
      <point x="1778" y="318"/>
      <point x="1763" y="286" type="qcurve" smooth="yes"/>
      <point x="1757" y="272"/>
      <point x="1716" y="232" type="qcurve" smooth="yes"/>
      <point x="1679" y="196"/>
      <point x="1679" y="183" type="qcurve"/>
      <point x="1693" y="152" type="line"/>
      <point x="1720" y="112"/>
      <point x="1798" y="17" type="qcurve" smooth="yes"/>
      <point x="1911" y="-121"/>
      <point x="1911" y="-188" type="qcurve" smooth="yes"/>
      <point x="1911" y="-226"/>
      <point x="1882" y="-263" type="qcurve" smooth="yes"/>
      <point x="1865" y="-279"/>
      <point x="1840" y="-279" type="qcurve" smooth="yes"/>
      <point x="1797" y="-279"/>
      <point x="1730" y="-238" type="qcurve" smooth="yes"/>
      <point x="1658" y="-194"/>
      <point x="1658" y="-155" type="qcurve" smooth="yes"/>
      <point x="1658" y="-125"/>
      <point x="1715" y="-75"/>
      <point x="1718" y="-59" type="qcurve" smooth="yes"/>
      <point x="1718" y="-15"/>
      <point x="1620" y="121" type="qcurve"/>
      <point x="1602" y="140" type="line" smooth="yes"/>
      <point x="1587" y="152"/>
      <point x="1562" y="156" type="qcurve"/>
      <point x="1537" y="152" type="line"/>
      <point x="1477" y="147" type="line" smooth="yes"/>
      <point x="1465" y="146"/>
      <point x="1451" y="146" type="qcurve" smooth="yes"/>
      <point x="1311" y="146"/>
      <point x="1148" y="275" type="qcurve" smooth="yes"/>
      <point x="975" y="412"/>
      <point x="953" y="610" type="qcurve"/>
      <point x="953" y="764"/>
      <point x="1061" y="845" type="qcurve" smooth="yes"/>
      <point x="1158" y="919"/>
      <point x="1317" y="917" type="qcurve" smooth="yes"/>
      <point x="1420" y="916" type="line" smooth="yes"/>
      <point x="1496" y="915"/>
      <point x="1512" y="922" type="qcurve" smooth="yes"/>
      <point x="1541" y="934"/>
      <point x="1557" y="994" type="qcurve"/>
      <point x="1557" y="1170" type="line"/>
      <point x="900" y="1170" type="line"/>
      <point x="900" y="1326" type="line"/>
      <point x="1896" y="1326" type="line"/>
    </contour>
    <contour>
      <point x="1508" y="1506" type="line" smooth="yes"/>
      <point x="1573" y="1438"/>
      <point x="1573" y="1396" type="qcurve" smooth="yes"/>
      <point x="1573" y="1368"/>
      <point x="1548" y="1367" type="qcurve" smooth="yes"/>
      <point x="1529" y="1366"/>
      <point x="1414" y="1488" type="qcurve" smooth="yes"/>
      <point x="1287" y="1622"/>
      <point x="1261" y="1641" type="qcurve" smooth="yes"/>
      <point x="1120" y="1740"/>
      <point x="975" y="1740" type="qcurve" smooth="yes"/>
      <point x="860" y="1740"/>
      <point x="721" y="1589"/>
      <point x="721" y="1472" type="qcurve" smooth="yes"/>
      <point x="721" y="1371"/>
      <point x="686" y="1371" type="qcurve" smooth="yes"/>
      <point x="646" y="1371"/>
      <point x="575" y="1493" type="qcurve" smooth="yes"/>
      <point x="544" y="1546"/>
      <point x="544" y="1607" type="qcurve" smooth="yes"/>
      <point x="544" y="1727"/>
      <point x="735" y="1907"/>
      <point x="856" y="1907" type="qcurve" smooth="yes"/>
      <point x="868" y="1907"/>
      <point x="881" y="1906" type="qcurve" smooth="yes"/>
      <point x="931" y="1902" type="line" smooth="yes"/>
      <point x="1144" y="1885"/>
      <point x="1292" y="1731" type="qcurve" smooth="yes"/>
    </contour>
    <contour>
      <point x="892" y="1169" type="line"/>
      <point x="742" y="1169" type="line"/>
      <point x="742" y="41" type="line" smooth="yes"/>
      <point x="742" y="5"/>
      <point x="715" y="1" type="qcurve" smooth="yes"/>
      <point x="697" y="0"/>
      <point x="629" y="68" type="qcurve"/>
      <point x="575" y="116"/>
      <point x="574" y="155" type="qcurve" smooth="yes"/>
      <point x="575" y="1169" type="line"/>
      <point x="424" y="1169" type="line"/>
      <point x="424" y="1325" type="line"/>
      <point x="892" y="1325" type="line"/>
    </contour>
    <contour>
      <point x="2722" y="-1200" type="qcurve"/>
      <point x="2769" y="-1200" type="line"/>
      <point x="2672" y="-1350"/>
      <point x="2542" y="-1451" type="qcurve" smooth="yes"/>
      <point x="2357" y="-1594"/>
      <point x="1854" y="-1750"/>
      <point x="1584" y="-1750" type="qcurve" smooth="yes"/>
      <point x="1189" y="-1750"/>
      <point x="537" y="-1445"/>
      <point x="396" y="-1200" type="qcurve"/>
      <point x="450" y="-1200" type="line"/>
      <point x="537" y="-1322"/>
      <point x="838" y="-1479"/>
      <point x="1300" y="-1557"/>
      <point x="1551" y="-1557" type="qcurve" smooth="yes"/>
      <point x="1824" y="-1557"/>
      <point x="2047" y="-1524" type="qcurve" smooth="yes"/>
      <point x="2223" y="-1498"/>
      <point x="2436" y="-1425"/>
      <point x="2632" y="-1300"/>
    </contour>
  </outline>
</glyph>
<glyph name="bracketright" format="1">
  <advance width="1582"/>
  <unicode hex="005D"/>
  <outline>
    <contour>
      <point x="957" y="1169" type="line"/>
      <point x="689" y="1169" type="line"/>
      <point x="689" y="1139"/>
      <point x="691" y="1108" type="qcurve" smooth="yes"/>
      <point x="693" y="1086"/>
      <point x="697" y="1028" type="qcurve" smooth="yes"/>
      <point x="706" y="889" type="line" smooth="yes"/>
      <point x="708" y="858"/>
      <point x="708" y="839" type="qcurve" smooth="yes"/>
      <point x="708" y="646"/>
      <point x="612" y="507" type="qcurve" smooth="yes"/>
      <point x="573" y="450"/>
      <point x="573" y="402" type="qcurve" smooth="yes"/>
      <point x="573" y="363"/>
      <point x="598" y="336" type="qcurve" smooth="yes"/>
      <point x="673" y="253"/>
      <point x="745" y="204" type="qcurve" smooth="yes"/>
      <point x="904" y="95" type="line" smooth="yes"/>
      <point x="957" y="59"/>
      <point x="957" y="-1" type="qcurve" smooth="yes"/>
      <point x="957" y="-50"/>
      <point x="916" y="-50" type="qcurve" smooth="yes"/>
      <point x="890" y="-50"/>
      <point x="860" y="-25" type="qcurve" smooth="yes"/>
      <point x="683" y="122" type="line"/>
      <point x="510" y="274" type="line" smooth="yes"/>
      <point x="439" y="336"/>
      <point x="348" y="448" type="qcurve" smooth="yes"/>
      <point x="337" y="461"/>
      <point x="302" y="510" type="qcurve" smooth="yes"/>
      <point x="265" y="556"/>
      <point x="203" y="656" type="qcurve" smooth="yes"/>
      <point x="195" y="673"/>
      <point x="190" y="689" type="qcurve" smooth="yes"/>
      <point x="181" y="747" type="line"/>
      <point x="181" y="859"/>
      <point x="267" y="859" type="qcurve" smooth="yes"/>
      <point x="295" y="859"/>
      <point x="409" y="808"/>
      <point x="438" y="808" type="qcurve" smooth="yes"/>
      <point x="462" y="808"/>
      <point x="477" y="816" type="qcurve"/>
      <point x="520" y="879"/>
      <point x="520" y="994" type="qcurve" smooth="yes"/>
      <point x="520" y="1061"/>
      <point x="510" y="1115" type="qcurve" smooth="yes"/>
      <point x="508" y="1144"/>
      <point x="500" y="1169" type="qcurve"/>
      <point x="122" y="1169" type="line"/>
      <point x="122" y="1325" type="line"/>
      <point x="957" y="1325" type="line"/>
    </contour>
    <contour>
      <point x="1460" y="1169" type="line"/>
      <point x="1304" y="1169" type="line"/>
      <point x="1303" y="44" type="line" smooth="yes"/>
      <point x="1303" y="1"/>
      <point x="1292" y="-3" type="qcurve"/>
      <point x="1277" y="-3"/>
      <point x="1203" y="66" type="qcurve" smooth="yes"/>
      <point x="1148" y="117" type="line" smooth="yes"/>
      <point x="1126" y="137"/>
      <point x="1122" y="170" type="qcurve"/>
      <point x="1122" y="1169" type="line"/>
      <point x="962" y="1169" type="line"/>
      <point x="962" y="1325" type="line"/>
      <point x="1460" y="1325" type="line"/>
    </contour>
  </outline>
</glyph>
<glyph name="g" format="2">
  <advance width="1582"/>
  <unicode hex="0067"/>
  <outline>
    <contour>
      <point x="1398" y="1169" type="line"/>
      <point x="1292" y="1169" type="line"/>
      <point x="1292" y="59" type="line" smooth="yes"/>
      <point x="1292" y="-1"/>
      <point x="1263" y="-2" type="qcurve" smooth="yes"/>
      <point x="1236" y="0"/>
      <point x="1116" y="155" type="qcurve"/>
      <point x="1097" y="193"/>
      <point x="1097" y="247" type="qcurve" smooth="yes"/>
      <point x="1097" y="1169" type="line"/>
      <point x="626" y="1169" type="line"/>
      <point x="687" y="891" type="line" smooth="yes"/>
      <point x="716" y="760"/>
      <point x="716" y="660" type="qcurve" smooth="yes"/>
      <point x="716" y="525"/>
      <point x="651" y="445" type="qcurve" smooth="yes"/>
      <point x="605" y="389"/>
      <point x="534" y="389" type="qcurve"/>
      <point x="433" y="400"/>
      <point x="341" y="528" type="qcurve" smooth="yes"/>
      <point x="258" y="643"/>
      <point x="247" y="750" type="qcurve"/>
      <point x="247" y="830"/>
      <point x="301" y="830" type="qcurve" smooth="yes"/>
      <point x="337" y="830"/>
      <point x="386" y="797" type="qcurve" smooth="yes"/>
      <point x="420" y="774"/>
      <point x="443" y="774" type="qcurve" smooth="yes"/>
      <point x="519" y="773"/>
      <point x="519" y="979" type="qcurve" smooth="yes"/>
      <point x="519" y="1040"/>
      <point x="510" y="1097" type="qcurve" smooth="yes"/>
      <point x="499" y="1169" type="line"/>
      <point x="187" y="1169" type="line"/>
      <point x="187" y="1325" type="line"/>
      <point x="1398" y="1325" type="line"/>
    </contour>
  </outline>
</glyph>
<glyph name="l" format="1">
  <advance width="0"/>
  <unicode hex="006C"/>
  <outline>
    <contour>
      <point x="-643" y="-824" type="line"/>
      <point x="-707" y="-902" type="line"/>
      <point x="-759" y="-960" type="line"/>
      <point x="-781" y="-972"/>
      <point x="-793" y="-972" type="qcurve" smooth="yes"/>
      <point x="-809" y="-972"/>
      <point x="-877" y="-892" type="qcurve" smooth="yes"/>
      <point x="-940" y="-820" type="line"/>
      <point x="-940" y="-783" type="line"/>
      <point x="-865" y="-681" type="line" smooth="yes"/>
      <point x="-837" y="-643"/>
      <point x="-809" y="-627" type="qcurve"/>
      <point x="-781" y="-627"/>
      <point x="-643" y="-783" type="qcurve"/>
      <point x="-641" y="-804" type="line"/>
    </contour>
  </outline>
</glyph>
<glyph name="m" format="1">
  <advance width="1582"/>
  <unicode hex="006D"/>
  <outline>
    <contour>
      <point x="1395" y="1169" type="line"/>
      <point x="1254" y="1169" type="line"/>
      <point x="1254" y="56" type="line"/>
      <point x="1258" y="-6"/>
      <point x="1231" y="0" type="qcurve"/>
      <point x="1206" y="-6"/>
      <point x="1071" y="140"/>
      <point x="1063" y="176" type="qcurve"/>
      <point x="1063" y="529" type="line"/>
      <point x="660" y="529" type="line"/>
      <point x="625" y="512"/>
      <point x="628" y="480" type="qcurve" smooth="yes"/>
      <point x="632" y="432" type="line"/>
      <point x="632" y="407" type="line" smooth="yes"/>
      <point x="632" y="390"/>
      <point x="628" y="372" type="qcurve"/>
      <point x="628" y="347"/>
      <point x="597" y="330" type="qcurve" smooth="yes"/>
      <point x="570" y="315"/>
      <point x="543" y="315" type="qcurve" smooth="yes"/>
      <point x="489" y="315"/>
      <point x="432" y="379" type="qcurve" smooth="yes"/>
      <point x="341" y="482" type="line"/>
      <point x="252" y="557"/>
      <point x="252" y="626" type="qcurve" smooth="yes"/>
      <point x="252" y="712"/>
      <point x="339" y="712" type="qcurve" smooth="yes"/>
      <point x="377" y="712" type="line"/>
      <point x="406" y="714" type="line"/>
      <point x="435" y="724" type="line"/>
      <point x="435" y="1169" type="line"/>
      <point x="190" y="1169" type="line"/>
      <point x="190" y="1325" type="line"/>
      <point x="1395" y="1325" type="line"/>
    </contour>
    <contour>
      <point x="1069" y="707" type="line"/>
      <point x="1069" y="1170" type="line"/>
      <point x="619" y="1170" type="line"/>
      <point x="619" y="707" type="line"/>
    </contour>
  </outline>
</glyph>
<glyph name="n" format="2">
  <advance width="1593"/>
  <unicode hex="006E"/>
  <outline>
    <contour>
      <point x="1101" y="1168" type="line"/>
      <point x="1012" y="1168" type="line"/>
      <point x="1012" y="75" type="line" smooth="yes"/>
      <point x="1013" y="1"/>
      <point x="988" y="0" type="qcurve" smooth="yes"/>
      <point x="962" y="0"/>
      <point x="891" y="73" type="qcurve"/>
      <point x="840" y="130" type="line" smooth="yes"/>
      <point x="814" y="159"/>
      <point x="809" y="188" type="qcurve"/>
      <point x="810" y="639" type="line"/>
      <point x="497" y="639" type="line" smooth="yes"/>
      <point x="462" y="639"/>
      <point x="432" y="614" type="qcurve" smooth="yes"/>
      <point x="412" y="598"/>
      <point x="408" y="566" type="qcurve"/>
      <point x="412" y="548" type="line"/>
      <point x="442" y="455"/>
      <point x="442" y="401" type="qcurve" smooth="yes"/>
      <point x="442" y="336"/>
      <point x="410" y="325" type="qcurve"/>
      <point x="350" y="318" type="line"/>
      <point x="290" y="318"/>
      <point x="231" y="364" type="qcurve"/>
      <point x="166" y="428" type="line" smooth="yes"/>
      <point x="67" y="525"/>
      <point x="67" y="634" type="qcurve" smooth="yes"/>
      <point x="67" y="816"/>
      <point x="332" y="808" type="qcurve"/>
      <point x="831" y="807" type="line"/>
      <point x="831" y="1168" type="line"/>
      <point x="8" y="1168" type="line"/>
      <point x="8" y="1325" type="line"/>
      <point x="1101" y="1325" type="line"/>
    </contour>
    <contour>
      <point x="1590" y="1170" type="line"/>
      <point x="1441" y="1170" type="line"/>
      <point x="1442" y="21" type="line" smooth="yes"/>
      <point x="1442" y="-6"/>
      <point x="1431" y="-6" type="qcurve" smooth="yes"/>
      <point x="1422" y="-6"/>
      <point x="1402" y="9" type="qcurve" smooth="yes"/>
      <point x="1347" y="59" type="line"/>
      <point x="1293" y="113" type="line" smooth="yes"/>
      <point x="1270" y="136"/>
      <point x="1265" y="167" type="qcurve"/>
      <point x="1265" y="1170" type="line"/>
      <point x="1103" y="1170" type="line"/>
      <point x="1103" y="1326" type="line"/>
      <point x="1291" y="1326" type="line"/>
      <point x="1294" y="1366" type="line" smooth="yes"/>
      <point x="1299" y="1434"/>
      <point x="1260" y="1521" type="qcurve" smooth="yes"/>
      <point x="1219" y="1612" type="line" smooth="yes"/>
      <point x="1189" y="1678"/>
      <point x="1056" y="1767"/>
      <point x="984" y="1767" type="qcurve" smooth="yes"/>
      <point x="953" y="1767"/>
      <point x="925" y="1758" type="qcurve" smooth="yes"/>
      <point x="777" y="1711"/>
      <point x="785" y="1493" type="qcurve" smooth="yes"/>
      <point x="787" y="1440" type="line" smooth="yes"/>
      <point x="789" y="1395"/>
      <point x="761" y="1395" type="qcurve" smooth="yes"/>
      <point x="708" y="1394"/>
      <point x="647" y="1498" type="qcurve" smooth="yes"/>
      <point x="590" y="1595"/>
      <point x="590" y="1654" type="qcurve" smooth="yes"/>
      <point x="590" y="1743"/>
      <point x="648" y="1829" type="qcurve" smooth="yes"/>
      <point x="735" y="1957"/>
      <point x="898" y="1957" type="qcurve" smooth="yes"/>
      <point x="1083" y="1957"/>
      <point x="1195" y="1808" type="qcurve" smooth="yes"/>
      <point x="1250" y="1734"/>
      <point x="1291" y="1643" type="qcurve" smooth="yes"/>
      <point x="1326" y="1566"/>
      <point x="1386" y="1326" type="qcurve"/>
      <point x="1590" y="1326" type="line"/>
    </contour>
  </outline>
</glyph>
<glyph name="p" format="2">
  <advance width="1582"/>
  <unicode hex="0070"/>
  <outline>
    <contour>
      <point x="1296" y="1169" type="line"/>
      <point x="1184" y="1169" type="line"/>
      <point x="1184" y="71" type="line" smooth="yes"/>
      <point x="1184" y="-6"/>
      <point x="1161" y="-6" type="qcurve" smooth="yes"/>
      <point x="1142" y="-6"/>
      <point x="1104" y="25" type="qcurve" smooth="yes"/>
      <point x="1047" y="72" type="line" smooth="yes"/>
      <point x="980" y="128"/>
      <point x="981" y="232" type="qcurve" smooth="yes"/>
      <point x="982" y="305" type="line"/>
      <point x="991" y="370" type="line"/>
      <point x="989" y="404" type="line" smooth="yes"/>
      <point x="987" y="432"/>
      <point x="981" y="454" type="qcurve"/>
      <point x="912" y="439" type="line"/>
      <point x="864" y="436" type="line"/>
      <point x="821" y="436" type="line" smooth="yes"/>
      <point x="733" y="436"/>
      <point x="669" y="468" type="qcurve" smooth="yes"/>
      <point x="643" y="481"/>
      <point x="553" y="552" type="qcurve" smooth="yes"/>
      <point x="475" y="613"/>
      <point x="453" y="637" type="qcurve" smooth="yes"/>
      <point x="404" y="688"/>
      <point x="389" y="749" type="qcurve"/>
      <point x="389" y="1169" type="line"/>
      <point x="286" y="1169" type="line"/>
      <point x="286" y="1325" type="line"/>
      <point x="1296" y="1325" type="line"/>
    </contour>
    <contour>
      <point x="1005" y="716" type="qcurve"/>
      <point x="1005" y="1170" type="line"/>
      <point x="565" y="1170" type="line"/>
      <point x="565" y="689" type="line"/>
      <point x="571" y="639"/>
      <point x="601" y="614" type="qcurve"/>
      <point x="635" y="592"/>
      <point x="685" y="592" type="qcurve"/>
      <point x="746" y="598" type="line"/>
      <point x="807" y="614" type="line" smooth="yes"/>
      <point x="873" y="631"/>
      <point x="907" y="648" type="qcurve" smooth="yes"/>
      <point x="960" y="674"/>
    </contour>
  </outline>
</glyph>
<glyph name="q" format="1">
  <advance width="0"/>
  <unicode hex="0071"/>
  <outline>
    <contour>
      <point x="1501" y="3625" type="qcurve" smooth="yes"/>
      <point x="1501" y="3319" type="line"/>
      <point x="1492" y="3310" type="line"/>
      <point x="1016" y="3310"/>
      <point x="727" y="3175" type="qcurve"/>
      <point x="499" y="3063"/>
      <point x="394" y="2761" type="qcurve"/>
      <point x="365" y="2500"/>
      <point x="349" y="2500" type="qcurve" smooth="yes"/>
      <point x="205" y="2500" type="line"/>
      <point x="196" y="2509" type="line"/>
      <point x="196" y="2811"/>
      <point x="394" y="3094" type="qcurve"/>
      <point x="851" y="3643"/>
      <point x="1474" y="3643" type="qcurve" smooth="yes"/>
      <point x="1501" y="3643"/>
    </contour>
  </outline>
</glyph>
